<svg width="1920" height="1080" viewBox="0 0 1920 1080" fill="none" xmlns="http://www.w3.org/2000/svg">
<mask id="mask0_18_450" style="mask-type:alpha" maskUnits="userSpaceOnUse" x="0" y="0" width="1920" height="1080">
<rect width="1920" height="1080" fill="#D9D9D9"/>
</mask>
<g mask="url(#mask0_18_450)">
<path d="M260.106 293.561C334.921 -136.461 1052.2 -662.261 1036.86 -128.495C1021.52 405.27 1577.84 -232.751 1710.96 15.4681C1710.96 15.4681 2020.48 673.137 1926.09 968.931C1831.7 1264.72 1558.76 1391.38 1356.61 1571.14C1154.45 1750.89 870.496 1324.12 897.633 1052.71C924.771 781.306 1323.96 1020.46 1330.65 862.335C1337.33 704.211 854.371 308.901 666.771 505.966C479.17 703.031 696.661 720.731 666.771 968.931C636.88 1217.13 496.868 1230.9 166.109 1099.91C-164.65 968.931 -122.961 735.285 -28.1776 646.39C66.606 557.495 232.182 758.492 260.106 302.214V293.561Z" fill="#A8D2D6" fill-opacity="0.15"/>
</g>
</svg>
