<svg width="1144" height="228" viewBox="0 0 1144 228" fill="none" xmlns="http://www.w3.org/2000/svg">
<g clip-path="url(#clip0_69_276)">
<g opacity="0.24">
<g opacity="0.8">
<rect x="0.0602417" y="227.759" width="226.882" height="27.0904" rx="2.25753" transform="rotate(-90 0.0602417 227.759)" fill="#2D9CDB"/>
</g>
</g>
<g opacity="0.24">
<g opacity="0.8">
<rect x="36.1807" y="227.759" width="191.89" height="27.0904" rx="2.25753" transform="rotate(-90 36.1807 227.759)" fill="#2D9CDB"/>
</g>
</g>
<g opacity="0.24">
<g opacity="0.8">
<rect x="72.3012" y="227.759" width="165.928" height="27.0904" rx="2.25753" transform="rotate(-90 72.3012 227.759)" fill="#2D9CDB"/>
</g>
</g>
<g opacity="0.24">
<g opacity="0.8">
<rect x="108.422" y="227.759" width="136.581" height="27.0904" rx="2.25753" transform="rotate(-90 108.422 227.759)" fill="#2D9CDB"/>
</g>
</g>
<g opacity="0.24">
<g opacity="0.8">
<rect x="144.542" y="227.759" width="91.43" height="27.0904" rx="2.25753" transform="rotate(-90 144.542 227.759)" fill="#2D9CDB"/>
</g>
</g>
<g opacity="0.24">
<g opacity="0.8">
<rect x="180.663" y="227.759" width="64.3396" height="27.0904" rx="2.25753" transform="rotate(-90 180.663 227.759)" fill="#2D9CDB"/>
</g>
</g>
<g opacity="0.24">
<g opacity="0.8">
<rect x="216.783" y="227.759" width="57.567" height="27.0904" rx="2.25753" transform="rotate(-90 216.783 227.759)" fill="#2D9CDB"/>
</g>
</g>
<g opacity="0.24">
<g opacity="0.8">
<rect width="55.3095" height="27.0904" rx="2.25753" transform="matrix(0 1 1 0 252.904 181.48)" fill="#2D9CDB"/>
</g>
</g>
<g opacity="0.24">
<g opacity="0.8">
<rect width="80.1423" height="27.0904" rx="2.25753" transform="matrix(0 1 1 0 289.024 181.48)" fill="#2D9CDB"/>
</g>
</g>
<g opacity="0.24">
<g opacity="0.8">
<rect width="86.9149" height="27.0904" rx="2.25753" transform="matrix(0 1 1 0 325.145 181.48)" fill="#2D9CDB"/>
</g>
</g>
<g opacity="0.24">
<g opacity="0.8">
<rect width="103.846" height="27.0904" rx="2.25753" transform="matrix(0 1 1 0 361.265 181.48)" fill="#2D9CDB"/>
</g>
</g>
<g opacity="0.24">
<g opacity="0.8">
<rect width="124.164" height="27.0904" rx="2.25753" transform="matrix(0 1 1 0 397.386 181.48)" fill="#2D9CDB"/>
</g>
</g>
<g opacity="0.24">
<g opacity="0.8">
<rect width="133.194" height="27.0904" rx="2.25753" transform="matrix(0 1 1 0 433.506 181.48)" fill="#2D9CDB"/>
</g>
</g>
<g opacity="0.24">
<g opacity="0.8">
<rect width="142.224" height="27.0904" rx="2.25753" transform="matrix(0 1 1 0 469.626 181.48)" fill="#2D9CDB"/>
</g>
</g>
<g opacity="0.24">
<g opacity="0.8">
<rect width="158.027" height="27.0904" rx="2.25753" transform="matrix(0 1 1 0 505.747 181.48)" fill="#2D9CDB"/>
</g>
</g>
<g opacity="0.24">
<g opacity="0.8">
<rect width="167.057" height="27.0904" rx="2.25753" transform="matrix(0 1 1 0 541.867 181.48)" fill="#2D9CDB"/>
</g>
</g>
<g opacity="0.24">
<g opacity="0.8">
<rect width="182.86" height="27.0904" rx="2.25753" transform="matrix(0 1 1 0 577.988 181.48)" fill="#2D9CDB"/>
</g>
</g>
<g opacity="0.4">
<g opacity="0.8">
<rect x="0.0602417" y="227.759" width="185.117" height="27.0904" rx="2.25753" transform="rotate(-90 0.0602417 227.759)" fill="#2D9CDB"/>
</g>
</g>
<g opacity="0.4">
<g opacity="0.8">
<rect x="36.1807" y="227.759" width="136.581" height="27.0904" rx="2.25753" transform="rotate(-90 36.1807 227.759)" fill="#2D9CDB"/>
</g>
</g>
<g opacity="0.4">
<g opacity="0.8">
<rect x="72.3012" y="227.759" width="110.619" height="27.0904" rx="2.25753" transform="rotate(-90 72.3012 227.759)" fill="#2D9CDB"/>
</g>
</g>
<g opacity="0.4">
<g opacity="0.8">
<rect x="108.422" y="227.759" width="90.3012" height="27.0904" rx="2.25753" transform="rotate(-90 108.422 227.759)" fill="#2D9CDB"/>
</g>
</g>
<g opacity="0.4">
<g opacity="0.8">
<rect x="144.542" y="227.759" width="84.6574" height="27.0904" rx="2.25753" transform="rotate(-90 144.542 227.759)" fill="#2D9CDB"/>
</g>
</g>
<g opacity="0.4">
<g opacity="0.8">
<rect x="180.663" y="227.759" width="74.4985" height="27.0904" rx="2.25753" transform="rotate(-90 180.663 227.759)" fill="#2D9CDB"/>
</g>
</g>
<g opacity="0.4">
<g opacity="0.8">
<rect x="216.783" y="227.759" width="68.8547" height="27.0904" rx="2.25753" transform="rotate(-90 216.783 227.759)" fill="#2D9CDB"/>
</g>
</g>
<g opacity="0.4">
<g opacity="0.8">
<rect x="252.904" y="227.759" width="62.0821" height="27.0904" rx="2.25753" transform="rotate(-90 252.904 227.759)" fill="#2D9CDB"/>
</g>
</g>
<g opacity="0.4">
<g opacity="0.8">
<rect x="289.024" y="227.759" width="37.2492" height="27.0904" rx="2.25753" transform="rotate(-90 289.024 227.759)" fill="#2D9CDB"/>
</g>
</g>
<g opacity="0.4">
<g opacity="0.8">
<rect x="325.145" y="227.759" width="25.9616" height="27.0904" rx="2.25753" transform="rotate(-90 325.145 227.759)" fill="#2D9CDB"/>
</g>
</g>
<g opacity="0.4">
<g opacity="0.8">
<rect x="361.265" y="227.759" width="20.3178" height="27.0904" rx="2.25753" transform="rotate(-90 361.265 227.759)" fill="#2D9CDB"/>
</g>
</g>
<g opacity="0.4">
<g opacity="0.8">
<rect x="397.386" y="227.759" width="16.9315" height="27.0904" rx="2.25753" transform="rotate(-90 397.386 227.759)" fill="#2D9CDB"/>
</g>
</g>
<g opacity="0.4">
<g opacity="0.8">
<rect x="433.506" y="227.759" width="14.6739" height="27.0904" rx="2.25753" transform="rotate(-90 433.506 227.759)" fill="#2D9CDB"/>
</g>
</g>
<g opacity="0.4">
<g opacity="0.8">
<rect x="469.626" y="227.759" width="12.4164" height="27.0904" rx="2.25753" transform="rotate(-90 469.626 227.759)" fill="#2D9CDB"/>
</g>
</g>
<g opacity="0.4">
<g opacity="0.8">
<rect x="505.747" y="227.759" width="7.90135" height="27.0904" rx="2.25753" transform="rotate(-90 505.747 227.759)" fill="#2D9CDB"/>
</g>
</g>
<g opacity="0.4">
<g opacity="0.8">
<rect x="541.867" y="227.759" width="6.77259" height="27.0904" rx="2.25753" transform="rotate(-90 541.867 227.759)" fill="#2D9CDB"/>
</g>
</g>
<g opacity="0.4">
<g opacity="0.8">
<rect x="577.988" y="227.759" width="4.51506" height="27.0904" rx="2.25753" transform="rotate(-90 577.988 227.759)" fill="#2D9CDB"/>
</g>
</g>
<path d="M10.1815 216.234H15.0126C15.5694 216.234 15.9871 216.125 16.2655 215.907C16.5364 215.689 16.6719 215.324 16.6719 214.812C16.6719 214.3 16.5364 213.935 16.2655 213.717C15.9871 213.499 15.5694 213.39 15.0126 213.39H10.1815V211.719H14.832C15.4114 211.719 15.9156 211.776 16.3445 211.889C16.7659 211.994 17.1158 212.171 17.3943 212.419C17.6652 212.667 17.8684 212.987 18.0038 213.379C18.1317 213.77 18.1957 214.248 18.1957 214.812C18.1957 215.377 18.1317 215.854 18.0038 216.246C17.8684 216.637 17.6652 216.957 17.3943 217.205C17.1158 217.453 16.7659 217.634 16.3445 217.747C15.9156 217.852 15.4114 217.905 14.832 217.905H10.1815V216.234ZM14.3353 205.925L12.755 206.681V206.715H18.0602V208.329H10.1815L10.1815 206.455L13.9064 204.3L15.4867 203.543V203.509H10.1815V201.895H18.0602V203.769L14.3353 205.925ZM18.0602 198.773H16.6944V197.757H11.5473L11.5473 198.773H10.1815L10.1815 195.025H11.5473V196.041H16.6944V195.025H18.0602V198.773ZM11.7053 188.662H18.0602V190.378H11.7053L11.7053 192.511H10.1815L10.1815 186.529H11.7053V188.662ZM18.0602 183.662H10.1815L10.1815 178.3H11.7053V181.946H13.3194V178.819H14.832V181.946H16.5364L16.5364 178.3H18.0602L18.0602 183.662ZM10.1815 175.112L10.1815 172.144C10.1815 171.624 10.2642 171.15 10.4298 170.721C10.5953 170.292 10.8437 169.927 11.1748 169.626C11.4984 169.325 11.9085 169.092 12.4051 168.927C12.8943 168.761 13.4662 168.678 14.1209 168.678C14.7755 168.678 15.3512 168.761 15.8479 168.927C16.337 169.092 16.7471 169.325 17.0782 169.626C17.4018 169.927 17.6464 170.292 17.8119 170.721C17.9775 171.15 18.0602 171.624 18.0602 172.144V175.112H10.1815ZM16.5364 172.144C16.5364 171.632 16.3934 171.229 16.1075 170.936C15.8215 170.642 15.3625 170.496 14.7304 170.496H13.5113C12.8792 170.496 12.4202 170.642 12.1342 170.936C11.8483 171.229 11.7053 171.632 11.7053 172.144V173.397H16.5364V172.144ZM18.1957 158.637C18.1957 159.329 18.0791 159.916 17.8458 160.398C17.605 160.879 17.2964 161.289 16.9202 161.628L15.7801 160.499C16.3821 159.965 16.6831 159.307 16.6831 158.524C16.6831 158.103 16.5966 157.79 16.4235 157.587C16.2505 157.384 16.0209 157.282 15.735 157.282C15.5168 157.282 15.3362 157.343 15.1932 157.463C15.0427 157.583 14.9411 157.828 14.8884 158.197L14.7868 158.975C14.6815 159.811 14.4294 160.424 14.0306 160.815C13.6317 161.199 13.1012 161.391 12.439 161.391C12.0853 161.391 11.7617 161.323 11.4683 161.188C11.1748 161.052 10.9227 160.861 10.712 160.612C10.5013 160.356 10.3395 160.048 10.2266 159.687C10.1062 159.318 10.046 158.9 10.046 158.434C10.046 157.839 10.1401 157.316 10.3282 156.865C10.5163 156.413 10.791 156.026 11.1522 155.702L12.3035 156.842C12.0853 157.03 11.9085 157.26 11.773 157.531C11.63 157.794 11.5586 158.129 11.5586 158.535C11.5586 158.919 11.6263 159.205 11.7617 159.393C11.8972 159.581 12.0853 159.675 12.3261 159.675C12.597 159.675 12.7927 159.604 12.9131 159.461C13.0335 159.31 13.12 159.07 13.1727 158.738L13.2969 157.96C13.4248 157.147 13.6769 156.545 14.0531 156.154C14.4219 155.762 14.9486 155.567 15.6334 155.567C16.0097 155.567 16.3558 155.634 16.6719 155.77C16.9879 155.905 17.2588 156.105 17.4846 156.368C17.7103 156.624 17.8872 156.944 18.0151 157.327C18.1355 157.711 18.1957 158.148 18.1957 158.637ZM11.7053 149.431H18.0602V151.147H11.7053V153.28H10.1815L10.1815 147.297H11.7053V149.431ZM18.0602 140.315L16.1865 140.88V143.51L18.0602 144.074V145.812L10.1815 143.216L10.1815 141.094L18.0602 138.532V140.315ZM11.7392 142.178V142.234L14.7304 143.103L14.7304 141.297L11.7392 142.178ZM11.7053 133.203H18.0602V134.918H11.7053V137.052H10.1815L10.1815 131.069H11.7053V133.203ZM18.0602 128.202H10.1815L10.1815 122.841H11.7053L11.7053 126.487H13.3194L13.3194 123.36H14.832L14.832 126.487H16.5364V122.841H18.0602V128.202ZM18.1957 117.102C18.1957 117.794 18.0791 118.381 17.8458 118.863C17.605 119.344 17.2964 119.754 16.9202 120.093L15.7801 118.964C16.3821 118.43 16.6831 117.772 16.6831 116.989C16.6831 116.568 16.5966 116.255 16.4235 116.052C16.2505 115.849 16.0209 115.747 15.735 115.747C15.5168 115.747 15.3362 115.808 15.1932 115.928C15.0427 116.048 14.9411 116.293 14.8884 116.662L14.7868 117.44C14.6815 118.276 14.4294 118.889 14.0306 119.28C13.6317 119.664 13.1012 119.856 12.439 119.856C12.0853 119.856 11.7617 119.788 11.4683 119.653C11.1748 119.517 10.9227 119.325 10.712 119.077C10.5013 118.821 10.3395 118.513 10.2266 118.152C10.1062 117.783 10.046 117.365 10.046 116.899C10.046 116.304 10.1401 115.781 10.3282 115.33C10.5163 114.878 10.791 114.491 11.1522 114.167L12.3035 115.307C12.0853 115.495 11.9085 115.725 11.773 115.996C11.63 116.259 11.5586 116.594 11.5586 117C11.5586 117.384 11.6263 117.67 11.7617 117.858C11.8972 118.046 12.0853 118.14 12.3261 118.14C12.597 118.14 12.7927 118.069 12.9131 117.926C13.0335 117.775 13.12 117.535 13.1727 117.203L13.2969 116.425C13.4248 115.612 13.6769 115.01 14.0531 114.619C14.4219 114.227 14.9486 114.032 15.6334 114.032C16.0097 114.032 16.3558 114.099 16.6719 114.235C16.9879 114.37 17.2588 114.57 17.4846 114.833C17.7103 115.089 17.8872 115.409 18.0151 115.792C18.1355 116.176 18.1957 116.613 18.1957 117.102Z" fill="white"/>
<path d="M54.1807 216.144V217.86H46.3019V214.124C46.3019 213.762 46.3621 213.435 46.4825 213.142C46.6029 212.848 46.776 212.6 47.0018 212.397C47.22 212.186 47.4834 212.024 47.7919 211.911C48.1004 211.798 48.4428 211.742 48.8191 211.742C49.3534 211.742 49.8199 211.862 50.2188 212.103C50.6176 212.336 50.9073 212.694 51.0879 213.175L54.1807 211.629V213.537L51.2911 214.914V216.144H54.1807ZM49.8463 214.338C49.8463 214.082 49.7823 213.883 49.6544 213.74C49.5189 213.589 49.3233 213.514 49.0674 213.514H48.5708C48.3149 213.514 48.123 213.589 47.9951 213.74C47.8596 213.883 47.7919 214.082 47.7919 214.338V216.144H49.8463V214.338ZM46.3019 207.09H51.1331C51.6899 207.09 52.1076 206.98 52.386 206.762C52.6569 206.544 52.7923 206.179 52.7923 205.667C52.7923 205.156 52.6569 204.791 52.386 204.572C52.1076 204.354 51.6899 204.245 51.1331 204.245H46.3019V202.575H50.9525C51.5319 202.575 52.0361 202.631 52.465 202.744C52.8864 202.849 53.2363 203.026 53.5148 203.274C53.7857 203.523 53.9888 203.843 54.1243 204.234C54.2522 204.625 54.3162 205.103 54.3162 205.667C54.3162 206.232 54.2522 206.71 54.1243 207.101C53.9888 207.492 53.7857 207.812 53.5148 208.06C53.2363 208.309 52.8864 208.489 52.465 208.602C52.0361 208.708 51.5319 208.76 50.9525 208.76H46.3019V207.09ZM54.3162 196.633C54.3162 197.326 54.1995 197.913 53.9663 198.394C53.7255 198.876 53.4169 199.286 53.0407 199.625L51.9006 198.496C52.5026 197.962 52.8036 197.303 52.8036 196.521C52.8036 196.099 52.7171 195.787 52.544 195.584C52.3709 195.381 52.1414 195.279 51.8555 195.279C51.6372 195.279 51.4566 195.339 51.3137 195.46C51.1632 195.58 51.0616 195.825 51.0089 196.193L50.9073 196.972C50.802 197.807 50.5499 198.421 50.151 198.812C49.7522 199.196 49.2217 199.388 48.5595 199.388C48.2058 199.388 47.8822 199.32 47.5887 199.184C47.2953 199.049 47.0432 198.857 46.8325 198.609C46.6218 198.353 46.46 198.044 46.3471 197.683C46.2267 197.314 46.1665 196.897 46.1665 196.43C46.1665 195.836 46.2606 195.313 46.4487 194.861C46.6368 194.41 46.9115 194.022 47.2727 193.699L48.424 194.839C48.2058 195.027 48.029 195.256 47.8935 195.527C47.7505 195.791 47.679 196.126 47.679 196.532C47.679 196.916 47.7468 197.202 47.8822 197.39C48.0177 197.578 48.2058 197.672 48.4466 197.672C48.7175 197.672 48.9132 197.6 49.0336 197.457C49.154 197.307 49.2405 197.066 49.2932 196.735L49.4173 195.956C49.5453 195.143 49.7974 194.541 50.1736 194.15C50.5423 193.759 51.0691 193.563 51.7539 193.563C52.1301 193.563 52.4763 193.631 52.7923 193.766C53.1084 193.902 53.3793 194.101 53.6051 194.365C53.8308 194.62 54.0076 194.94 54.1356 195.324C54.256 195.708 54.3162 196.144 54.3162 196.633ZM54.3162 188.051C54.3162 188.743 54.1995 189.33 53.9663 189.812C53.7255 190.293 53.4169 190.703 53.0407 191.042L51.9006 189.913C52.5026 189.379 52.8036 188.721 52.8036 187.938C52.8036 187.517 52.7171 187.204 52.544 187.001C52.3709 186.798 52.1414 186.696 51.8555 186.696C51.6372 186.696 51.4566 186.757 51.3137 186.877C51.1632 186.997 51.0616 187.242 51.0089 187.611L50.9073 188.39C50.802 189.225 50.5499 189.838 50.151 190.229C49.7522 190.613 49.2217 190.805 48.5595 190.805C48.2058 190.805 47.8822 190.737 47.5887 190.602C47.2953 190.466 47.0432 190.275 46.8325 190.026C46.6218 189.77 46.46 189.462 46.3471 189.101C46.2267 188.732 46.1665 188.314 46.1665 187.848C46.1665 187.253 46.2606 186.73 46.4487 186.279C46.6368 185.827 46.9115 185.44 47.2727 185.116L48.424 186.256C48.2058 186.444 48.029 186.674 47.8935 186.945C47.7505 187.208 47.679 187.543 47.679 187.949C47.679 188.333 47.7468 188.619 47.8822 188.807C48.0177 188.995 48.2058 189.089 48.4466 189.089C48.7175 189.089 48.9132 189.018 49.0336 188.875C49.154 188.724 49.2405 188.484 49.2932 188.152L49.4173 187.374C49.5453 186.561 49.7974 185.959 50.1736 185.568C50.5423 185.176 51.0691 184.981 51.7539 184.981C52.1301 184.981 52.4763 185.048 52.7923 185.184C53.1084 185.319 53.3793 185.519 53.6051 185.782C53.8308 186.038 54.0076 186.358 54.1356 186.742C54.256 187.125 54.3162 187.562 54.3162 188.051ZM54.1807 182.17H52.8149V181.154H47.6678V182.17H46.3019V178.422H47.6678V179.438H52.8149V178.422H54.1807V182.17ZM54.1807 170.446L52.307 171.01V173.64L54.1807 174.205V175.943L46.3019 173.347V171.225L54.1807 168.662V170.446ZM47.8596 172.308V172.365L50.8509 173.234V171.428L47.8596 172.308Z" fill="white"/>
<path d="M82.4224 216.234H87.2535C87.8104 216.234 88.228 216.125 88.5065 215.907C88.7774 215.689 88.9128 215.324 88.9128 214.812C88.9128 214.3 88.7774 213.935 88.5065 213.717C88.228 213.499 87.8104 213.39 87.2535 213.39H82.4224V211.719H87.0729C87.6524 211.719 88.1566 211.776 88.5855 211.889C89.0069 211.994 89.3568 212.171 89.6352 212.419C89.9061 212.667 90.1093 212.987 90.2448 213.379C90.3727 213.77 90.4367 214.248 90.4367 214.812C90.4367 215.377 90.3727 215.854 90.2448 216.246C90.1093 216.637 89.9061 216.957 89.6352 217.205C89.3568 217.453 89.0069 217.634 88.5855 217.747C88.1566 217.852 87.6524 217.905 87.0729 217.905H82.4224V216.234ZM86.8698 205.586L88.1114 206.614H90.3012V208.329H82.4224V206.614H86.1699V206.546L84.6461 205.428L82.4224 203.656V201.715L85.662 204.367L90.3012 201.478V203.498L86.8698 205.586ZM90.3012 197.061V198.777H82.4224V195.04C82.4224 194.679 82.4826 194.352 82.603 194.058C82.7234 193.765 82.8965 193.517 83.1223 193.313C83.3405 193.103 83.6039 192.941 83.9124 192.828C84.2209 192.715 84.5633 192.659 84.9396 192.659C85.4739 192.659 85.9404 192.779 86.3392 193.02C86.7381 193.253 87.0278 193.611 87.2084 194.092L90.3012 192.546V194.453L87.4116 195.831V197.061H90.3012ZM85.9668 195.255C85.9668 194.999 85.9028 194.8 85.7749 194.657C85.6394 194.506 85.4438 194.431 85.1879 194.431H84.6912C84.4354 194.431 84.2435 194.506 84.1156 194.657C83.9801 194.8 83.9124 194.999 83.9124 195.255V197.061H85.9668V195.255ZM90.3012 184.624L88.4275 185.188V187.818L90.3012 188.383V190.121L82.4224 187.525V185.403L90.3012 182.84V184.624ZM83.9801 186.486V186.543L86.9714 187.412V185.606L83.9801 186.486ZM90.3012 180.362H88.9354V179.346H83.7882V180.362H82.4224V176.614H83.7882V177.63H88.9354V176.614H90.3012L90.3012 180.362ZM86.5763 171.088L84.996 171.844V171.878H90.3012V173.492H82.4224V171.618L86.1474 169.462L87.7276 168.706V168.672H82.4224V167.058H90.3012V168.932L86.5763 171.088ZM90.3012 163.631H82.4224V158.269H83.9463V161.915H85.5604V158.788H87.0729V161.915H88.7774V158.269H90.3012V163.631Z" fill="white"/>
<path d="M126.422 218.165H125.056V217.149H119.909V218.165H118.543V214.417H119.909V215.433H125.056V214.417H126.422V218.165ZM122.697 208.89L121.116 209.646V209.68H126.422V211.294H118.543V209.421L122.268 207.265L123.848 206.508V206.475H118.543V204.86H126.422V206.734L122.697 208.89ZM118.543 201.433V198.465C118.543 197.945 118.626 197.471 118.791 197.042C118.957 196.613 119.205 196.248 119.536 195.947C119.86 195.646 120.27 195.413 120.767 195.248C121.256 195.082 121.828 194.999 122.482 194.999C123.137 194.999 123.713 195.082 124.209 195.248C124.698 195.413 125.109 195.646 125.44 195.947C125.763 196.248 126.008 196.613 126.173 197.042C126.339 197.471 126.422 197.945 126.422 198.465V201.433H118.543ZM124.898 198.465C124.898 197.953 124.755 197.55 124.469 197.257C124.183 196.963 123.724 196.817 123.092 196.817H121.873C121.241 196.817 120.782 196.963 120.496 197.257C120.21 197.55 120.067 197.953 120.067 198.465V199.717H124.898V198.465ZM126.422 192.174H125.056V191.158H119.909V192.174H118.543V188.427H119.909V189.443H125.056V188.427H126.422V192.174ZM126.422 180.45L124.548 181.015V183.645L126.422 184.209V185.948L118.543 183.351L118.543 181.229L126.422 178.667V180.45ZM120.101 182.313V182.369L123.092 183.239L123.092 181.433L120.101 182.313Z" fill="white"/>
</g>
<defs>
<clipPath id="clip0_69_276">
<rect width="227.398" height="1143.94" fill="white" transform="translate(0.0602417 227.759) rotate(-90)"/>
</clipPath>
</defs>
</svg>
