<svg width="25" height="25" viewBox="0 0 25 25" fill="none" xmlns="http://www.w3.org/2000/svg">
<path d="M12.5 0C5.60768 0 0 5.60768 0 12.5C0 14.5471 0.539192 16.4593 1.41357 18.1653L0.0585938 23.0176C-0.257002 24.1447 0.857454 25.2579 1.98486 24.9426L6.8396 23.5876C8.5444 24.4608 10.4543 25 12.5 25C19.3923 25 25 19.3923 25 12.5C25 5.60768 19.3923 0 12.5 0ZM12.5 1.875C18.3789 1.875 23.125 6.62107 23.125 12.5C23.125 18.3789 18.3789 23.125 12.5 23.125C10.6231 23.125 8.87016 22.6364 7.34009 21.7834C7.12405 21.6629 6.86912 21.6326 6.63086 21.6992L2.01416 22.9883L3.30322 18.374C3.36981 18.1358 3.33954 17.8808 3.21899 17.6648C2.36478 16.1334 1.875 14.3778 1.875 12.5C1.875 6.62107 6.62107 1.875 12.5 1.875Z" fill="white"/>
</svg>
