<svg width="75" height="34" viewBox="0 0 75 34" fill="none" xmlns="http://www.w3.org/2000/svg">
<path d="M0 33.6V0H15.888C19.6 0 22.864 0.688001 25.68 2.064C28.496 3.44 30.688 5.376 32.256 7.872C33.856 10.368 34.656 13.344 34.656 16.8C34.656 20.224 33.856 23.2 32.256 25.728C30.688 28.224 28.496 30.16 25.68 31.536C22.864 32.912 19.6 33.6 15.888 33.6H0ZM9.504 26.016H15.504C17.424 26.016 19.088 25.664 20.496 24.96C21.936 24.224 23.056 23.168 23.856 21.792C24.656 20.384 25.056 18.72 25.056 16.8C25.056 14.848 24.656 13.184 23.856 11.808C23.056 10.432 21.936 9.392 20.496 8.688C19.088 7.952 17.424 7.584 15.504 7.584H9.504V26.016Z" fill="white"/>
<path d="M39.6562 33.6V0H55.5443C59.2562 0 62.5202 0.688001 65.3363 2.064C68.1523 3.44 70.3443 5.376 71.9123 7.872C73.5123 10.368 74.3123 13.344 74.3123 16.8C74.3123 20.224 73.5123 23.2 71.9123 25.728C70.3443 28.224 68.1523 30.16 65.3363 31.536C62.5202 32.912 59.2562 33.6 55.5443 33.6H39.6562ZM49.1602 26.016H55.1602C57.0802 26.016 58.7442 25.664 60.1522 24.96C61.5923 24.224 62.7123 23.168 63.5123 21.792C64.3123 20.384 64.7122 18.72 64.7122 16.8C64.7122 14.848 64.3123 13.184 63.5123 11.808C62.7123 10.432 61.5923 9.392 60.1522 8.688C58.7442 7.952 57.0802 7.584 55.1602 7.584H49.1602V26.016Z" fill="white"/>
</svg>
