<svg width="25" height="27" viewBox="0 0 25 27" fill="none" xmlns="http://www.w3.org/2000/svg">
<path d="M1.73611 0C0.789171 0 0 0.797478 0 1.75439V5.96491C0 6.78608 0.625586 7.38951 1.38889 7.57264V22.1053C1.38889 24.6119 3.42227 26.6667 5.90278 26.6667H19.0972C21.5777 26.6667 23.6111 24.6119 23.6111 22.1053V7.57264C24.3744 7.38951 25 6.78608 25 5.96491V1.75439C25 0.797478 24.2108 0 23.2639 0H1.73611ZM2.08333 2.10526H22.9167V5.61404H2.08333V2.10526ZM3.47222 7.7193H21.5278V22.1053C21.5278 23.4737 20.4514 24.5614 19.0972 24.5614H5.90278C4.54857 24.5614 3.47222 23.4737 3.47222 22.1053V7.7193ZM9.375 11.9298C9.23697 11.9279 9.09992 11.9536 8.97183 12.0056C8.84374 12.0577 8.72715 12.1349 8.62885 12.2328C8.53055 12.3308 8.45249 12.4475 8.39921 12.5762C8.34593 12.7048 8.3185 12.843 8.3185 12.9825C8.3185 13.122 8.34593 13.2601 8.39921 13.3888C8.45249 13.5174 8.53055 13.6342 8.62885 13.7321C8.72715 13.83 8.84374 13.9073 8.97183 13.9593C9.09992 14.0113 9.23697 14.0371 9.375 14.0351H15.625C15.763 14.0371 15.9001 14.0113 16.0282 13.9593C16.1563 13.9073 16.2728 13.83 16.3711 13.7321C16.4694 13.6342 16.5475 13.5174 16.6008 13.3888C16.6541 13.2601 16.6815 13.122 16.6815 12.9825C16.6815 12.843 16.6541 12.7048 16.6008 12.5762C16.5475 12.4475 16.4694 12.3308 16.3711 12.2328C16.2728 12.1349 16.1563 12.0577 16.0282 12.0056C15.9001 11.9536 15.763 11.9279 15.625 11.9298H9.375Z" fill="white"/>
</svg>
