<svg width="25" height="20" viewBox="0 0 25 20" fill="none" xmlns="http://www.w3.org/2000/svg">
<path d="M2.8125 0C1.27031 0 0 1.26097 0 2.79182V17.0611C0 18.592 1.27031 19.8529 2.8125 19.8529H22.1875C23.7297 19.8529 25 18.592 25 17.0611V5.89384C25 4.36299 23.7297 3.10202 22.1875 3.10202H12.5269L9.73267 0.791258C9.11503 0.280491 8.33698 0 7.53296 0H2.8125ZM2.8125 1.86121H7.53296C7.89894 1.86121 8.2516 1.98862 8.53271 2.2211L10.7227 4.03263L8.53271 5.84416C8.2516 6.07664 7.89894 6.20404 7.53296 6.20404H1.875V2.79182C1.875 2.26665 2.28344 1.86121 2.8125 1.86121ZM12.5269 4.96324H22.1875C22.7166 4.96324 23.125 5.36867 23.125 5.89384V17.0611C23.125 17.5863 22.7166 17.9917 22.1875 17.9917H2.8125C2.28344 17.9917 1.875 17.5863 1.875 17.0611V8.06526H7.53296C8.33698 8.06526 9.11503 7.78477 9.73267 7.274L12.5269 4.96324Z" fill="white"/>
</svg>
