<svg width="25" height="28" viewBox="0 0 25 28" fill="none" xmlns="http://www.w3.org/2000/svg">
<path d="M12.4661 0.000511805C12.244 0.00821344 12.0301 0.0878363 11.8557 0.227746L1.98568 8.12311C0.73297 9.12552 0 10.6573 0 12.2767V25.7372C0 26.6987 0.789171 27.5 1.73611 27.5H8.68056C9.6275 27.5 10.4167 26.6987 10.4167 25.7372V18.6861C10.4167 18.478 10.559 18.3335 10.7639 18.3335H14.2361C14.441 18.3335 14.5833 18.478 14.5833 18.6861V25.7372C14.5833 26.6987 15.3725 27.5 16.3194 27.5H23.2639C24.2108 27.5 25 26.6987 25 25.7372V12.2767C25 10.6573 24.267 9.12552 23.0143 8.12311L13.1443 0.227746C12.9516 0.073238 12.7115 -0.0072383 12.4661 0.000511805ZM12.5 2.40506L21.7258 9.78536C22.4787 10.3878 22.9167 11.3041 22.9167 12.2767V25.3847H16.6667V18.6861C16.6667 17.3358 15.5659 16.2182 14.2361 16.2182H10.7639C9.43406 16.2182 8.33333 17.3358 8.33333 18.6861V25.3847H2.08333V12.2767C2.08333 11.3041 2.52135 10.3878 3.2742 9.78536L12.5 2.40506Z" fill="white"/>
</svg>
