<svg width="18" height="17" viewBox="0 0 18 17" fill="none" xmlns="http://www.w3.org/2000/svg">
<path d="M2.472 16.896L13.944 0.0960002H14.976L3.504 16.896H2.472ZM3.696 9.072C2.976 9.072 2.336 8.888 1.776 8.52C1.216 8.136 0.776 7.608 0.456 6.936C0.152 6.248 0 5.448 0 4.536C0 3.624 0.152 2.832 0.456 2.16C0.776 1.472 1.216 0.944001 1.776 0.576001C2.336 0.192 2.976 0 3.696 0C4.432 0 5.08 0.192 5.64 0.576001C6.2 0.944001 6.632 1.472 6.936 2.16C7.256 2.832 7.416 3.624 7.416 4.536C7.416 5.448 7.256 6.248 6.936 6.936C6.632 7.608 6.2 8.136 5.64 8.52C5.08 8.888 4.432 9.072 3.696 9.072ZM3.696 8.256C4.544 8.256 5.224 7.928 5.736 7.272C6.248 6.616 6.504 5.704 6.504 4.536C6.504 3.368 6.248 2.456 5.736 1.8C5.224 1.144 4.544 0.816001 3.696 0.816001C2.864 0.816001 2.192 1.144 1.68 1.8C1.168 2.456 0.912 3.368 0.912 4.536C0.912 5.688 1.168 6.6 1.68 7.272C2.192 7.928 2.864 8.256 3.696 8.256ZM13.752 16.992C13.032 16.992 12.384 16.808 11.808 16.44C11.248 16.056 10.808 15.528 10.488 14.856C10.184 14.168 10.032 13.368 10.032 12.456C10.032 11.544 10.184 10.752 10.488 10.08C10.808 9.392 11.248 8.864 11.808 8.496C12.384 8.112 13.032 7.92 13.752 7.92C14.488 7.92 15.128 8.112 15.672 8.496C16.232 8.864 16.664 9.392 16.968 10.08C17.288 10.752 17.448 11.544 17.448 12.456C17.448 13.368 17.288 14.168 16.968 14.856C16.664 15.528 16.232 16.056 15.672 16.44C15.128 16.808 14.488 16.992 13.752 16.992ZM13.752 16.176C14.584 16.176 15.256 15.848 15.768 15.192C16.28 14.52 16.536 13.608 16.536 12.456C16.536 11.304 16.28 10.4 15.768 9.744C15.256 9.072 14.584 8.736 13.752 8.736C12.904 8.736 12.224 9.064 11.712 9.72C11.2 10.376 10.944 11.288 10.944 12.456C10.944 13.624 11.2 14.536 11.712 15.192C12.224 15.848 12.904 16.176 13.752 16.176Z" fill="black"/>
</svg>
