<svg width="252" height="252" viewBox="0 0 252 252" fill="none" xmlns="http://www.w3.org/2000/svg">
<path d="M235.651 114.521C244.302 113.615 252.153 119.911 251.973 128.607C251.595 146.872 247.248 164.902 239.157 181.42C228.749 202.672 212.567 220.563 192.463 233.045C172.36 245.527 149.148 252.096 125.484 251.999C107.091 251.924 89.0032 247.824 72.4659 240.062C64.5916 236.366 62.4313 226.537 67.0799 219.185C71.7286 211.833 81.4263 209.78 89.4478 213.145C100.856 217.93 113.141 220.448 125.613 220.499C143.361 220.572 160.77 215.645 175.848 206.284C190.925 196.922 203.062 183.504 210.868 167.565C216.354 156.364 219.545 144.236 220.316 131.889C220.858 123.208 227 115.427 235.651 114.521Z" fill="#4A5050"/>
<path d="M131.603 236.108C132.045 244.795 125.339 252.298 116.665 251.654C100.477 250.451 84.6229 246.128 69.9939 238.869C50.646 229.268 34.0909 214.855 21.9178 197.013C9.74477 179.172 2.36247 158.5 0.479651 136.984C-0.94396 120.715 0.812592 104.376 5.5966 88.8647C8.16025 80.5526 17.5926 77.0451 25.5203 80.6251C33.4479 84.2051 36.8308 93.5225 34.6157 101.934C31.853 112.425 30.9072 123.352 31.8597 134.238C33.2719 150.375 38.8086 165.879 47.9384 179.26C57.0682 192.641 69.4845 203.451 83.9954 210.651C93.7836 215.508 104.303 218.613 115.079 219.867C123.719 220.872 131.161 227.42 131.603 236.108Z" fill="#89C2D9"/>
<path d="M16.6704 111.784C8.04449 110.663 1.86401 102.721 4.05231 94.302C7.33366 81.6781 12.5636 69.6088 19.5811 58.5387C29.4174 43.0222 42.5278 29.8443 57.9937 19.9286C73.4596 10.0129 90.9067 3.59912 109.113 1.13682C122.101 -0.619873 135.252 -0.334993 148.093 1.95205C156.657 3.47726 161.294 12.4084 158.713 20.7151C156.132 29.0219 147.3 33.5217 138.68 32.3546C130.293 31.219 121.768 31.2119 113.334 32.3526C99.68 34.1993 86.5947 39.0096 74.9953 46.4464C63.3959 53.8833 53.5631 63.7666 46.1859 75.404C41.6291 82.5922 38.0774 90.3421 35.6089 98.4373C33.0718 106.758 25.2962 112.906 16.6704 111.784Z" fill="#2A6F97"/>
<path d="M126 15.75C126 7.05152 133.079 -0.101401 141.709 0.983102C154.593 2.60202 167.181 6.20686 179.017 11.6971C195.63 19.4025 210.363 30.6364 222.191 44.6165C234.019 58.5966 242.658 74.987 247.505 92.6462C250.959 105.229 252.429 118.24 251.892 131.214C251.532 139.905 243.306 145.701 234.727 144.26C226.149 142.819 220.502 134.672 220.5 125.974C220.498 117.554 219.37 109.149 217.129 100.985C213.493 87.7402 207.014 75.4475 198.143 64.9624C189.272 54.4773 178.222 46.0518 165.763 40.2728C158.082 36.7103 149.98 34.2063 141.677 32.8095C133.099 31.3664 126 24.4485 126 15.75Z" fill="#49ACA7"/>
<path d="M1.68955 13.2632V12.6755L6.52142 7.87628C6.97849 7.41921 7.32129 7.022 7.54982 6.68464C7.77836 6.33639 7.93071 6.01536 8.00689 5.72153C8.09395 5.4277 8.13748 5.13931 8.13748 4.85636C8.13748 4.13811 7.89263 3.57221 7.40291 3.15868C6.91319 2.73426 6.19494 2.52204 5.24816 2.52204C4.5299 2.52204 3.89871 2.63087 3.35458 2.84852C2.82134 3.06617 2.35883 3.39809 1.96705 3.84428L1.37939 3.32192C1.8147 2.82132 2.36427 2.43498 3.02811 2.16292C3.70283 1.89085 4.46461 1.75482 5.31345 1.75482C6.06435 1.75482 6.71186 1.87997 7.25599 2.13027C7.81101 2.36969 8.23543 2.71793 8.52926 3.175C8.83397 3.62119 8.98633 4.15443 8.98633 4.77474C8.98633 5.14475 8.93191 5.50932 8.82309 5.86844C8.72514 6.21668 8.54014 6.58669 8.26807 6.97847C8.00689 7.37024 7.626 7.81643 7.1254 8.31703L2.58736 12.8387L2.30986 12.5123H9.54134V13.2632H1.68955Z" fill="black"/>
<path d="M11.9079 13.2632V12.6755L16.7398 7.87628C17.1969 7.41921 17.5397 7.022 17.7682 6.68464C17.9967 6.33639 18.1491 6.01536 18.2253 5.72153C18.3123 5.4277 18.3559 5.13931 18.3559 4.85636C18.3559 4.13811 18.111 3.57221 17.6213 3.15868C17.1316 2.73426 16.4133 2.52204 15.4665 2.52204C14.7483 2.52204 14.1171 2.63087 13.573 2.84852C13.0397 3.06617 12.5772 3.39809 12.1854 3.84428L11.5978 3.32192C12.0331 2.82132 12.5826 2.43498 13.2465 2.16292C13.9212 1.89085 14.683 1.75482 15.5318 1.75482C16.2827 1.75482 16.9302 1.87997 17.4744 2.13027C18.0294 2.36969 18.4538 2.71793 18.7476 3.175C19.0523 3.62119 19.2047 4.15443 19.2047 4.77474C19.2047 5.14475 19.1503 5.50932 19.0415 5.86844C18.9435 6.21668 18.7585 6.58669 18.4864 6.97847C18.2253 7.37024 17.8444 7.81643 17.3438 8.31703L12.8057 12.8387L12.5282 12.5123H19.7597V13.2632H11.9079Z" fill="black"/>
<path d="M24.0324 13.2632L31.8352 1.83644H32.5371L24.7343 13.2632H24.0324ZM24.8649 7.94158C24.3752 7.94158 23.9399 7.81643 23.559 7.56613C23.1781 7.30494 22.8788 6.94582 22.6612 6.48875C22.4544 6.0208 22.351 5.47667 22.351 4.85636C22.351 4.23605 22.4544 3.69736 22.6612 3.2403C22.8788 2.77234 23.1781 2.41322 23.559 2.16292C23.9399 1.90174 24.3752 1.77115 24.8649 1.77115C25.3655 1.77115 25.8062 1.90174 26.1871 2.16292C26.568 2.41322 26.8618 2.77234 27.0686 3.2403C27.2863 3.69736 27.3951 4.23605 27.3951 4.85636C27.3951 5.47667 27.2863 6.0208 27.0686 6.48875C26.8618 6.94582 26.568 7.30494 26.1871 7.56613C25.8062 7.81643 25.3655 7.94158 24.8649 7.94158ZM24.8649 7.38656C25.4417 7.38656 25.9042 7.16347 26.2524 6.71728C26.6006 6.2711 26.7748 5.65079 26.7748 4.85636C26.7748 4.06193 26.6006 3.44162 26.2524 2.99544C25.9042 2.54925 25.4417 2.32616 24.8649 2.32616C24.299 2.32616 23.8419 2.54925 23.4937 2.99544C23.1454 3.44162 22.9713 4.06193 22.9713 4.85636C22.9713 5.63991 23.1454 6.26021 23.4937 6.71728C23.8419 7.16347 24.299 7.38656 24.8649 7.38656ZM31.7046 13.3285C31.2149 13.3285 30.7741 13.2033 30.3824 12.953C30.0015 12.6918 29.7022 12.3327 29.4845 11.8756C29.2778 11.4077 29.1744 10.8636 29.1744 10.2432C29.1744 9.62294 29.2778 9.08425 29.4845 8.62718C29.7022 8.15923 30.0015 7.8001 30.3824 7.5498C30.7741 7.28862 31.2149 7.15803 31.7046 7.15803C32.2052 7.15803 32.6405 7.28862 33.0105 7.5498C33.3914 7.8001 33.6852 8.15923 33.892 8.62718C34.1096 9.08425 34.2185 9.62294 34.2185 10.2432C34.2185 10.8636 34.1096 11.4077 33.892 11.8756C33.6852 12.3327 33.3914 12.6918 33.0105 12.953C32.6405 13.2033 32.2052 13.3285 31.7046 13.3285ZM31.7046 12.7734C32.2705 12.7734 32.7276 12.5504 33.0758 12.1042C33.424 11.6471 33.5982 11.0268 33.5982 10.2432C33.5982 9.4597 33.424 8.84483 33.0758 8.39864C32.7276 7.94158 32.2705 7.71304 31.7046 7.71304C31.1278 7.71304 30.6653 7.93613 30.3171 8.38232C29.9688 8.82851 29.7947 9.44881 29.7947 10.2432C29.7947 11.0377 29.9688 11.658 30.3171 12.1042C30.6653 12.5504 31.1278 12.7734 31.7046 12.7734Z" fill="black"/>
<path d="M0.669285 250.98V250.392L5.50115 245.593C5.95822 245.136 6.30102 244.739 6.52956 244.401C6.75809 244.053 6.91045 243.732 6.98663 243.438C7.07369 243.144 7.11722 242.856 7.11722 242.573C7.11722 241.855 6.87236 241.289 6.38264 240.875C5.89293 240.451 5.17468 240.239 4.22789 240.239C3.50964 240.239 2.87845 240.347 2.33432 240.565C1.80107 240.783 1.33856 241.115 0.946791 241.561L0.359131 241.039C0.794434 240.538 1.34401 240.152 2.00784 239.88C2.68256 239.607 3.44435 239.471 4.29319 239.471C5.04409 239.471 5.6916 239.597 6.23573 239.847C6.79074 240.086 7.21516 240.435 7.50899 240.892C7.8137 241.338 7.96606 241.871 7.96606 242.491C7.96606 242.861 7.91165 243.226 7.80282 243.585C7.70488 243.933 7.51988 244.303 7.24781 244.695C6.98663 245.087 6.60574 245.533 6.10514 246.034L1.5671 250.555L1.28959 250.229H8.52107V250.98H0.669285Z" fill="black"/>
<path d="M15.3604 251.061C14.4571 251.061 13.6845 250.931 13.0424 250.67C12.4003 250.408 11.9052 250.038 11.5569 249.56C11.2196 249.081 11.0509 248.509 11.0509 247.846C11.0509 247.204 11.2196 246.654 11.5569 246.197C11.8943 245.74 12.384 245.392 13.0261 245.152C13.6682 244.902 14.4463 244.777 15.3604 244.777C16.2745 244.777 17.0526 244.902 17.6947 245.152C18.3477 245.392 18.8428 245.74 19.1802 246.197C19.5284 246.654 19.7026 247.204 19.7026 247.846C19.7026 248.509 19.5284 249.081 19.1802 249.56C18.8319 250.038 18.3313 250.408 17.6784 250.67C17.0363 250.931 16.2637 251.061 15.3604 251.061ZM15.3604 250.343C16.4595 250.343 17.3193 250.12 17.9396 249.674C18.5599 249.228 18.87 248.618 18.87 247.846C18.87 247.084 18.5599 246.48 17.9396 246.034C17.3193 245.587 16.4595 245.364 15.3604 245.364C14.2613 245.364 13.407 245.587 12.7975 246.034C12.1881 246.48 11.8834 247.084 11.8834 247.846C11.8834 248.618 12.1881 249.228 12.7975 249.674C13.407 250.12 14.2613 250.343 15.3604 250.343ZM15.3604 245.25C14.5333 245.25 13.826 245.141 13.2383 244.924C12.6615 244.695 12.2208 244.369 11.9161 243.944C11.6113 243.52 11.459 243.014 11.459 242.426C11.459 241.817 11.6168 241.294 11.9324 240.859C12.2589 240.413 12.7159 240.07 13.3036 239.831C13.8912 239.591 14.5769 239.471 15.3604 239.471C16.1548 239.471 16.8459 239.591 17.4335 239.831C18.0212 240.07 18.4783 240.413 18.8047 240.859C19.1312 241.294 19.2945 241.817 19.2945 242.426C19.2945 243.014 19.1367 243.52 18.8211 243.944C18.5163 244.369 18.0702 244.695 17.4825 244.924C16.8948 245.141 16.1875 245.25 15.3604 245.25ZM15.3604 244.679C16.3398 244.679 17.1016 244.477 17.6457 244.075C18.1899 243.672 18.4619 243.133 18.4619 242.459C18.4619 241.751 18.179 241.196 17.6131 240.794C17.0581 240.391 16.3072 240.19 15.3604 240.19C14.4245 240.19 13.679 240.391 13.124 240.794C12.569 241.196 12.2915 241.746 12.2915 242.442C12.2915 243.128 12.5581 243.672 13.0914 244.075C13.6355 244.477 14.3918 244.679 15.3604 244.679Z" fill="black"/>
<path d="M23.8092 250.98L31.612 239.553H32.3139L24.5111 250.98H23.8092ZM24.6417 245.658C24.152 245.658 23.7167 245.533 23.3358 245.283C22.9549 245.022 22.6556 244.662 22.438 244.205C22.2312 243.737 22.1278 243.193 22.1278 242.573C22.1278 241.953 22.2312 241.414 22.438 240.957C22.6556 240.489 22.9549 240.13 23.3358 239.88C23.7167 239.618 24.152 239.488 24.6417 239.488C25.1423 239.488 25.583 239.618 25.9639 239.88C26.3448 240.13 26.6386 240.489 26.8454 240.957C27.0631 241.414 27.1719 241.953 27.1719 242.573C27.1719 243.193 27.0631 243.737 26.8454 244.205C26.6386 244.662 26.3448 245.022 25.9639 245.283C25.583 245.533 25.1423 245.658 24.6417 245.658ZM24.6417 245.103C25.2185 245.103 25.681 244.88 26.0292 244.434C26.3774 243.988 26.5516 243.367 26.5516 242.573C26.5516 241.779 26.3774 241.158 26.0292 240.712C25.681 240.266 25.2185 240.043 24.6417 240.043C24.0758 240.043 23.6187 240.266 23.2705 240.712C22.9222 241.158 22.7481 241.779 22.7481 242.573C22.7481 243.357 22.9222 243.977 23.2705 244.434C23.6187 244.88 24.0758 245.103 24.6417 245.103ZM31.4814 251.045C30.9917 251.045 30.5509 250.92 30.1591 250.67C29.7783 250.408 29.479 250.049 29.2613 249.592C29.0546 249.124 28.9512 248.58 28.9512 247.96C28.9512 247.34 29.0546 246.801 29.2613 246.344C29.479 245.876 29.7783 245.517 30.1591 245.266C30.5509 245.005 30.9917 244.875 31.4814 244.875C31.982 244.875 32.4173 245.005 32.7873 245.266C33.1682 245.517 33.462 245.876 33.6688 246.344C33.8864 246.801 33.9953 247.34 33.9953 247.96C33.9953 248.58 33.8864 249.124 33.6688 249.592C33.462 250.049 33.1682 250.408 32.7873 250.67C32.4173 250.92 31.982 251.045 31.4814 251.045ZM31.4814 250.49C32.0473 250.49 32.5043 250.267 32.8526 249.821C33.2008 249.364 33.375 248.743 33.375 247.96C33.375 247.176 33.2008 246.561 32.8526 246.115C32.5043 245.658 32.0473 245.43 31.4814 245.43C30.9046 245.43 30.4421 245.653 30.0939 246.099C29.7456 246.545 29.5715 247.165 29.5715 247.96C29.5715 248.754 29.7456 249.375 30.0939 249.821C30.4421 250.267 30.9046 250.49 31.4814 250.49Z" fill="black"/>
<path d="M219.001 13.2632V12.6755L223.833 7.87628C224.29 7.41921 224.633 7.022 224.862 6.68464C225.09 6.33639 225.242 6.01536 225.319 5.72153C225.406 5.4277 225.449 5.13931 225.449 4.85636C225.449 4.13811 225.204 3.57221 224.715 3.15868C224.225 2.73426 223.507 2.52204 222.56 2.52204C221.842 2.52204 221.21 2.63087 220.666 2.84852C220.133 3.06617 219.671 3.39809 219.279 3.84428L218.691 3.32192C219.126 2.82132 219.676 2.43498 220.34 2.16292C221.015 1.89085 221.776 1.75482 222.625 1.75482C223.376 1.75482 224.024 1.87997 224.568 2.13027C225.123 2.36969 225.547 2.71793 225.841 3.175C226.146 3.62119 226.298 4.15443 226.298 4.77474C226.298 5.14475 226.244 5.50932 226.135 5.86844C226.037 6.21668 225.852 6.58669 225.58 6.97847C225.319 7.37024 224.938 7.81643 224.437 8.31703L219.899 12.8387L219.622 12.5123H226.853V13.2632H219.001Z" fill="black"/>
<path d="M231.424 13.2632L236.452 2.22821L236.746 2.58734H229.449L229.874 2.19557V4.77474H229.058V1.83644H237.252V2.4241L232.339 13.2632H231.424Z" fill="black"/>
<path d="M241.424 13.2632L249.227 1.83644H249.929L242.126 13.2632H241.424ZM242.256 7.94158C241.767 7.94158 241.331 7.81643 240.95 7.56613C240.569 7.30494 240.27 6.94582 240.053 6.48875C239.846 6.0208 239.742 5.47667 239.742 4.85636C239.742 4.23605 239.846 3.69736 240.053 3.2403C240.27 2.77234 240.569 2.41322 240.95 2.16292C241.331 1.90174 241.767 1.77115 242.256 1.77115C242.757 1.77115 243.198 1.90174 243.579 2.16292C243.959 2.41322 244.253 2.77234 244.46 3.2403C244.678 3.69736 244.786 4.23605 244.786 4.85636C244.786 5.47667 244.678 6.0208 244.46 6.48875C244.253 6.94582 243.959 7.30494 243.579 7.56613C243.198 7.81643 242.757 7.94158 242.256 7.94158ZM242.256 7.38656C242.833 7.38656 243.296 7.16347 243.644 6.71728C243.992 6.2711 244.166 5.65079 244.166 4.85636C244.166 4.06193 243.992 3.44162 243.644 2.99544C243.296 2.54925 242.833 2.32616 242.256 2.32616C241.69 2.32616 241.233 2.54925 240.885 2.99544C240.537 3.44162 240.363 4.06193 240.363 4.85636C240.363 5.63991 240.537 6.26021 240.885 6.71728C241.233 7.16347 241.69 7.38656 242.256 7.38656ZM249.096 13.3285C248.606 13.3285 248.166 13.2033 247.774 12.953C247.393 12.6918 247.094 12.3327 246.876 11.8756C246.669 11.4077 246.566 10.8636 246.566 10.2432C246.566 9.62294 246.669 9.08425 246.876 8.62718C247.094 8.15923 247.393 7.8001 247.774 7.5498C248.166 7.28862 248.606 7.15803 249.096 7.15803C249.597 7.15803 250.032 7.28862 250.402 7.5498C250.783 7.8001 251.077 8.15923 251.283 8.62718C251.501 9.08425 251.61 9.62294 251.61 10.2432C251.61 10.8636 251.501 11.4077 251.283 11.8756C251.077 12.3327 250.783 12.6918 250.402 12.953C250.032 13.2033 249.597 13.3285 249.096 13.3285ZM249.096 12.7734C249.662 12.7734 250.119 12.5504 250.467 12.1042C250.815 11.6471 250.99 11.0268 250.99 10.2432C250.99 9.4597 250.815 8.84483 250.467 8.39864C250.119 7.94158 249.662 7.71304 249.096 7.71304C248.519 7.71304 248.057 7.93613 247.708 8.38232C247.36 8.82851 247.186 9.44881 247.186 10.2432C247.186 11.0377 247.36 11.658 247.708 12.1042C248.057 12.5504 248.519 12.7734 249.096 12.7734Z" fill="black"/>
<path d="M218.642 250.245V249.658L223.474 244.858C223.931 244.401 224.274 244.004 224.502 243.667C224.731 243.318 224.883 242.997 224.959 242.704C225.047 242.41 225.09 242.121 225.09 241.838C225.09 241.12 224.845 240.554 224.355 240.141C223.866 239.716 223.148 239.504 222.201 239.504C221.482 239.504 220.851 239.613 220.307 239.831C219.774 240.048 219.311 240.38 218.92 240.826L218.332 240.304C218.767 239.803 219.317 239.417 219.981 239.145C220.655 238.873 221.417 238.737 222.266 238.737C223.017 238.737 223.664 238.862 224.209 239.112C224.764 239.352 225.188 239.7 225.482 240.157C225.787 240.603 225.939 241.136 225.939 241.757C225.939 242.127 225.884 242.491 225.776 242.85C225.678 243.199 225.493 243.569 225.221 243.96C224.959 244.352 224.579 244.798 224.078 245.299L219.54 249.821L219.262 249.494H226.494V250.245H218.642Z" fill="black"/>
<path d="M232.435 250.327C231.597 250.327 230.814 250.185 230.085 249.902C229.367 249.619 228.806 249.249 228.403 248.792L228.828 248.156C229.176 248.558 229.666 248.896 230.297 249.168C230.939 249.429 231.652 249.56 232.435 249.56C233.458 249.56 234.236 249.331 234.77 248.874C235.314 248.417 235.586 247.802 235.586 247.029C235.586 246.268 235.314 245.658 234.77 245.201C234.236 244.733 233.399 244.499 232.256 244.499H231.538V243.895L235.178 239.243L235.292 239.569H228.828V238.818H235.994V239.406L232.37 244.058L232.011 243.797H232.37C233.73 243.797 234.748 244.097 235.423 244.695C236.097 245.294 236.435 246.072 236.435 247.029C236.435 247.661 236.282 248.226 235.978 248.727C235.684 249.228 235.238 249.619 234.639 249.902C234.051 250.185 233.317 250.327 232.435 250.327Z" fill="black"/>
<path d="M240.57 250.245L248.373 238.818H249.075L241.272 250.245H240.57ZM241.403 244.924C240.913 244.924 240.478 244.798 240.097 244.548C239.716 244.287 239.417 243.928 239.199 243.471C238.992 243.003 238.889 242.459 238.889 241.838C238.889 241.218 238.992 240.679 239.199 240.222C239.417 239.754 239.716 239.395 240.097 239.145C240.478 238.884 240.913 238.753 241.403 238.753C241.904 238.753 242.344 238.884 242.725 239.145C243.106 239.395 243.4 239.754 243.607 240.222C243.824 240.679 243.933 241.218 243.933 241.838C243.933 242.459 243.824 243.003 243.607 243.471C243.4 243.928 243.106 244.287 242.725 244.548C242.344 244.798 241.904 244.924 241.403 244.924ZM241.403 244.369C241.98 244.369 242.442 244.145 242.791 243.699C243.139 243.253 243.313 242.633 243.313 241.838C243.313 241.044 243.139 240.424 242.791 239.977C242.442 239.531 241.98 239.308 241.403 239.308C240.837 239.308 240.38 239.531 240.032 239.977C239.684 240.424 239.509 241.044 239.509 241.838C239.509 242.622 239.684 243.242 240.032 243.699C240.38 244.145 240.837 244.369 241.403 244.369ZM248.243 250.31C247.753 250.31 247.312 250.185 246.92 249.935C246.54 249.674 246.24 249.315 246.023 248.858C245.816 248.39 245.712 247.846 245.712 247.225C245.712 246.605 245.816 246.066 246.023 245.609C246.24 245.141 246.54 244.782 246.92 244.532C247.312 244.271 247.753 244.14 248.243 244.14C248.743 244.14 249.179 244.271 249.549 244.532C249.929 244.782 250.223 245.141 250.43 245.609C250.648 246.066 250.757 246.605 250.757 247.225C250.757 247.846 250.648 248.39 250.43 248.858C250.223 249.315 249.929 249.674 249.549 249.935C249.179 250.185 248.743 250.31 248.243 250.31ZM248.243 249.755C248.809 249.755 249.266 249.532 249.614 249.086C249.962 248.629 250.136 248.009 250.136 247.225C250.136 246.442 249.962 245.827 249.614 245.381C249.266 244.924 248.809 244.695 248.243 244.695C247.666 244.695 247.203 244.918 246.855 245.364C246.507 245.811 246.333 246.431 246.333 247.225C246.333 248.02 246.507 248.64 246.855 249.086C247.203 249.532 247.666 249.755 248.243 249.755Z" fill="black"/>
</svg>
