<svg width="25" height="24" viewBox="0 0 25 24" fill="none" xmlns="http://www.w3.org/2000/svg">
<path d="M12.5288 0.000478739C12.3666 -0.00507113 12.2062 0.0377292 12.0665 0.123835L3.26839 5.52962C3.17206 5.5888 3.08789 5.66714 3.02068 5.76016C2.95347 5.85317 2.90454 5.95905 2.87668 6.07173C2.84882 6.18441 2.84258 6.3017 2.85832 6.41689C2.87405 6.53208 2.91145 6.64292 2.96838 6.74308C3.02531 6.84324 3.10066 6.93076 3.19012 7.00063C3.27958 7.07051 3.3814 7.12137 3.48976 7.15033C3.59813 7.17928 3.71092 7.18575 3.82168 7.16937C3.93245 7.15299 4.03904 7.11408 4.13534 7.05486L12.5 1.91423L20.4467 6.79777V11.7343L19.062 10.2944C18.9827 10.2094 18.8877 10.1419 18.7828 10.0957C18.6778 10.0496 18.5651 10.0258 18.4512 10.0258C18.2817 10.0258 18.1161 10.0784 17.9756 10.1769C17.8351 10.2753 17.726 10.4152 17.6623 10.5784C17.5986 10.7417 17.5832 10.9211 17.6181 11.0935C17.6529 11.2659 17.7365 11.4236 17.858 11.5464L20.6961 14.4978C20.8558 14.6637 21.0724 14.757 21.2981 14.757C21.5239 14.757 21.7404 14.6637 21.9001 14.4978L24.7382 11.5464C24.8199 11.4648 24.8852 11.3671 24.9301 11.259C24.9751 11.1508 24.9988 11.0345 25 10.9167C25.0011 10.7989 24.9796 10.682 24.9368 10.573C24.894 10.4639 24.8307 10.3648 24.7506 10.2815C24.6705 10.1982 24.5752 10.1324 24.4703 10.0879C24.3655 10.0434 24.2531 10.021 24.1398 10.0222C24.0266 10.0234 23.9146 10.0481 23.8107 10.0949C23.7067 10.1416 23.6127 10.2094 23.5343 10.2944L22.1496 11.7343V6.29166C22.1496 6.13783 22.111 5.98666 22.0377 5.85303C21.9644 5.71941 21.8589 5.60794 21.7316 5.52962L12.9335 0.123835C12.8107 0.0480869 12.6715 0.00566747 12.5288 0.000478739ZM3.68967 8.85448C3.46811 8.85785 3.25653 8.9509 3.09988 9.11387L0.261771 12.0652C0.180058 12.1468 0.11482 12.2445 0.0698787 12.3526C0.0249373 12.4608 0.00119571 12.5771 4.4013e-05 12.6949C-0.00110768 12.8127 0.0203537 12.9296 0.0631715 13.0386C0.105989 13.1477 0.169303 13.2468 0.249404 13.3301C0.329505 13.4134 0.424783 13.4792 0.529659 13.5237C0.634535 13.5683 0.7469 13.5906 0.860174 13.5894C0.973448 13.5882 1.08535 13.5635 1.18934 13.5168C1.29332 13.47 1.38729 13.4022 1.46575 13.3172L2.85044 11.8773V17.32C2.85045 17.4738 2.889 17.625 2.96228 17.7586C3.03557 17.8922 3.14107 18.0037 3.26839 18.082L12.0665 23.4878C12.1978 23.5685 12.3475 23.6111 12.5 23.6111C12.6525 23.6111 12.8022 23.5685 12.9335 23.4878L21.7316 18.082C21.9261 17.9625 22.067 17.7675 22.1232 17.5399C22.1795 17.3123 22.1465 17.0709 22.0315 16.8686C21.9165 16.6664 21.729 16.5199 21.5102 16.4614C21.2914 16.4029 21.0592 16.4372 20.8647 16.5568L12.5 21.6974L4.5533 16.8139V11.8773L5.93799 13.3172C6.01644 13.4022 6.11041 13.47 6.2144 13.5168C6.31838 13.5635 6.43029 13.5882 6.54356 13.5894C6.65683 13.5906 6.7692 13.5683 6.87407 13.5237C6.97895 13.4792 7.07423 13.4134 7.15433 13.3301C7.23443 13.2468 7.29774 13.1477 7.34056 13.0386C7.38338 12.9296 7.40484 12.8127 7.40369 12.6949C7.40254 12.5771 7.3788 12.4608 7.33385 12.3526C7.28891 12.2445 7.22368 12.1468 7.14196 12.0652L4.30386 9.11387C4.22336 9.03013 4.12753 8.96403 4.02203 8.91947C3.91654 8.87492 3.80352 8.85282 3.68967 8.85448Z" fill="white"/>
</svg>
