<svg width="27" height="25" viewBox="0 0 27 25" fill="none" xmlns="http://www.w3.org/2000/svg">
<path d="M10.7347 0C4.96548 0 0.265381 4.51786 0.265381 10.0634C0.265381 15.6089 4.96548 20.1268 10.7347 20.1268C13.2303 20.1268 15.5244 19.2794 17.326 17.8712L24.4094 24.6799C24.5092 24.7799 24.6288 24.8596 24.761 24.9146C24.8933 24.9695 25.0356 24.9985 25.1797 24.9999C25.3238 25.0014 25.4667 24.9751 25.6001 24.9228C25.7335 24.8704 25.8547 24.793 25.9566 24.6951C26.0585 24.5971 26.1391 24.4806 26.1935 24.3524C26.248 24.2242 26.2753 24.0868 26.2738 23.9483C26.2724 23.8098 26.2422 23.673 26.185 23.5458C26.1278 23.4187 26.0448 23.3038 25.9409 23.2078L18.8575 16.3991C20.3225 14.6673 21.204 12.4622 21.204 10.0634C21.204 4.51786 16.5039 0 10.7347 0ZM10.7347 2.08208C15.3333 2.08208 19.038 5.64309 19.038 10.0634C19.038 12.2167 18.1544 14.1621 16.721 15.5952C16.6327 15.6577 16.5547 15.7326 16.4897 15.8176C14.9988 17.1953 12.9749 18.0447 10.7347 18.0447C6.13611 18.0447 2.43145 14.4837 2.43145 10.0634C2.43145 5.64309 6.13611 2.08208 10.7347 2.08208Z" fill="#434343"/>
</svg>
