<svg width="25" height="27" viewBox="0 0 25 27" fill="none" xmlns="http://www.w3.org/2000/svg">
<path d="M12.5 0C11.4736 0 10.484 0.129803 9.53929 0.34959C9.34229 0.395572 9.16443 0.501609 9.0303 0.653048C8.89617 0.804486 8.81239 0.993847 8.79053 1.19496L8.58332 3.08402C8.51555 3.70305 8.15797 4.25075 7.61845 4.56247C7.08001 4.87356 6.42646 4.90802 5.85652 4.65781H5.85525L4.12001 3.8938C3.93493 3.81235 3.72912 3.79037 3.53101 3.8309C3.3329 3.87144 3.15226 3.97248 3.01404 4.12008C1.66511 5.55819 0.629825 7.29958 0.0418876 9.24316C-0.0166768 9.4366 -0.0137668 9.64345 0.0502161 9.83517C0.114199 10.0269 0.236101 10.194 0.399105 10.3135L1.93857 11.4424C2.44128 11.812 2.73691 12.3944 2.73691 13.0175C2.73691 13.6408 2.44128 14.2237 1.93857 14.5925L0.399105 15.7201C0.236101 15.8396 0.114199 16.0067 0.0502161 16.1985C-0.0137668 16.3902 -0.0166768 16.597 0.0418876 16.7905C0.629762 18.7339 1.66422 20.4765 3.01404 21.9148C3.15241 22.0622 3.33312 22.163 3.53122 22.2033C3.72932 22.2436 3.93505 22.2214 4.12001 22.1398L5.85525 21.3758C6.42547 21.1251 7.07964 21.1611 7.61845 21.4724C8.15797 21.7842 8.51555 22.3319 8.58332 22.9509L8.79053 24.84C8.81255 25.0407 8.89626 25.2296 9.03013 25.3808C9.164 25.532 9.34144 25.6379 9.53802 25.6841C10.4832 25.9046 11.4736 26.0349 12.5 26.0349C13.5264 26.0349 14.516 25.9051 15.4607 25.6853C15.6577 25.6393 15.8356 25.5333 15.9697 25.3819C16.1038 25.2304 16.1876 25.0411 16.2095 24.84L16.4167 22.9509C16.4844 22.3319 16.842 21.7842 17.3815 21.4724C17.92 21.1614 18.5735 21.1256 19.1435 21.3758L20.88 22.1398C21.0649 22.2214 21.2707 22.2436 21.4688 22.2033C21.6669 22.163 21.8476 22.0622 21.986 21.9148C23.3349 20.4767 24.3702 18.7341 24.9581 16.7905C25.0167 16.597 25.0138 16.3902 24.9498 16.1985C24.8858 16.0067 24.7639 15.8396 24.6009 15.7201L23.0614 14.5925C22.5587 14.2237 22.2631 13.6408 22.2631 13.0175C22.2631 12.3941 22.5587 11.8112 23.0614 11.4424L24.6009 10.3148C24.7639 10.1953 24.8858 10.0282 24.9498 9.83645C25.0138 9.64472 25.0167 9.43787 24.9581 9.24443C24.3702 7.30085 23.3349 5.55819 21.986 4.12008C21.8476 3.97269 21.6669 3.87189 21.4688 3.83159C21.2707 3.79128 21.0649 3.81346 20.88 3.89507L19.1435 4.65908C18.5735 4.90929 17.92 4.87356 17.3815 4.56247C16.842 4.25075 16.4844 3.70305 16.4167 3.08402L16.2095 1.19496C16.1874 0.994243 16.1037 0.805287 15.9699 0.654117C15.836 0.502947 15.6586 0.396998 15.462 0.350861C14.5168 0.130276 13.5264 0 12.5 0ZM12.5 1.95262C13.1341 1.95262 13.7431 2.06644 14.3535 2.17381L14.4755 3.29631C14.6108 4.53227 15.3293 5.63157 16.4052 6.25321C17.4819 6.87526 18.7927 6.94677 19.9304 6.44644L20.9626 5.99261C21.7553 6.94442 22.3828 8.01952 22.8212 9.19739L21.9059 9.8686C20.9038 10.6037 20.3105 11.7741 20.3105 13.0175C20.3105 14.2608 20.9038 15.4312 21.9059 16.1663L22.8212 16.8375C22.3828 18.0154 21.7553 19.0905 20.9626 20.0423L19.9304 19.5885C18.7927 19.0881 17.4819 19.1597 16.4052 19.7817C15.3293 20.4033 14.6108 21.5026 14.4755 22.7386L14.3535 23.8611C13.7432 23.9682 13.1338 24.0823 12.5 24.0823C11.8659 24.0823 11.2569 23.9685 10.6465 23.8611L10.5245 22.7386C10.3892 21.5026 9.67071 20.4033 8.59476 19.7817C7.51811 19.1597 6.2073 19.0881 5.06963 19.5885L4.03738 20.0423C3.24457 19.0906 2.61711 18.0155 2.17884 16.8375L3.09413 16.1663C4.09623 15.4312 4.68953 14.2608 4.68953 13.0175C4.68953 11.7741 4.09575 10.603 3.09413 9.86733L2.17884 9.19612C2.61736 8.0178 3.24553 6.94341 4.03865 5.99134L5.06963 6.44517C6.2073 6.9455 7.51811 6.87526 8.59476 6.25321C9.67071 5.63157 10.3892 4.53227 10.5245 3.29631L10.6465 2.17381C11.2568 2.06674 11.8662 1.95262 12.5 1.95262ZM12.5 7.81047C9.63583 7.81047 7.29302 10.1533 7.29302 13.0175C7.29302 15.8816 9.63583 18.2244 12.5 18.2244C15.3642 18.2244 17.707 15.8816 17.707 13.0175C17.707 10.1533 15.3642 7.81047 12.5 7.81047ZM12.5 9.76309C14.3089 9.76309 15.7544 11.2086 15.7544 13.0175C15.7544 14.8264 14.3089 16.2718 12.5 16.2718C10.6911 16.2718 9.24564 14.8264 9.24564 13.0175C9.24564 11.2086 10.6911 9.76309 12.5 9.76309Z" fill="white"/>
</svg>
