<svg width="25" height="27" viewBox="0 0 25 27" fill="none" xmlns="http://www.w3.org/2000/svg">
<path d="M10.0723 8.41333e-05C9.90475 -0.00203157 9.73914 0.035784 9.58958 0.110314C9.44001 0.184844 9.31092 0.293883 9.21329 0.428155C9.11565 0.562428 9.05236 0.717961 9.0288 0.881525C9.00524 1.04509 9.0221 1.21184 9.07796 1.3676H6.00814C4.73378 1.3676 3.54044 1.99628 2.83401 3.04228L1.19208 5.47015H1.05525C0.917381 5.46823 0.780498 5.49334 0.652558 5.54402C0.524618 5.5947 0.408172 5.66994 0.309987 5.76537C0.211802 5.8608 0.133836 5.97452 0.0806199 6.09991C0.0274042 6.2253 0 6.35987 0 6.49579C0 6.63171 0.0274042 6.76628 0.0806199 6.89167C0.133836 7.01706 0.211802 7.13078 0.309987 7.22621C0.408172 7.32164 0.524618 7.39688 0.652558 7.44756C0.780498 7.49824 0.917381 7.52335 1.05525 7.52143H1.58495C1.6742 7.53473 1.76482 7.53652 1.85454 7.52677L3.56963 23.3066C3.77657 25.2091 5.42218 26.6667 7.36287 26.6667H17.6358C19.5765 26.6667 21.2221 25.2091 21.429 23.3066L23.1455 7.52677C23.2334 7.53606 23.3222 7.53427 23.4096 7.52143H23.9448C24.0826 7.52335 24.2195 7.49824 24.3474 7.44756C24.4754 7.39688 24.5918 7.32164 24.69 7.22621C24.7882 7.13078 24.8662 7.01706 24.9194 6.89167C24.9726 6.76628 25 6.63171 25 6.49579C25 6.35987 24.9726 6.2253 24.9194 6.09991C24.8662 5.97452 24.7882 5.8608 24.69 5.76537C24.5918 5.66994 24.4754 5.5947 24.3474 5.54402C24.2195 5.49334 24.0826 5.46823 23.9448 5.47015H23.8079L22.166 3.04228C21.459 1.99685 20.2658 1.3676 18.9919 1.3676H15.922C15.9779 1.21184 15.9948 1.04509 15.9712 0.881525C15.9476 0.717961 15.8843 0.562428 15.7867 0.428155C15.6891 0.293883 15.56 0.184844 15.4104 0.110314C15.2609 0.035784 15.0953 -0.00203157 14.9277 8.41333e-05H10.0723ZM6.00814 3.41888H18.9919C19.5727 3.41888 20.1123 3.70347 20.4347 4.18009L21.3071 5.47015H3.69291L4.56535 4.18009C4.56581 4.17965 4.56626 4.1792 4.56671 4.17876C4.88819 3.70273 5.42637 3.41888 6.00814 3.41888ZM3.9476 7.52143H21.0524L19.3603 23.0876C19.2649 23.9653 18.5306 24.6154 17.6358 24.6154H7.36287C6.46804 24.6154 5.73513 23.9653 5.63965 23.0876L3.9476 7.52143Z" fill="white"/>
</svg>
