<svg width="25" height="19" viewBox="0 0 25 19" fill="none" xmlns="http://www.w3.org/2000/svg">
<path d="M12.5 0C8.7619 0 5.6857 2.8399 5.38272 6.44101H5.05952C2.26964 6.44101 0 8.6737 0 11.4182C0 14.1626 2.26964 16.3953 5.05952 16.3953H10.4167V14.6387H5.05952C3.25417 14.6387 1.78571 13.1941 1.78571 11.4182C1.78571 9.6422 3.25417 8.19765 5.05952 8.19765H6.25C6.74345 8.19765 7.14286 7.80475 7.14286 7.31933V7.02656C7.14286 4.12108 9.54643 1.75664 12.5 1.75664C15.4536 1.75664 17.8571 4.12108 17.8571 7.02656V7.31933C17.8571 7.80475 18.2565 8.19765 18.75 8.19765H19.9405C21.7458 8.19765 23.2143 9.6422 23.2143 11.4182C23.2143 13.1941 21.7458 14.6387 19.9405 14.6387H14.5833V16.3953H19.9405C22.7304 16.3953 25 14.1626 25 11.4182C25 8.6737 22.7304 6.44101 19.9405 6.44101H19.6173C19.3143 2.8399 16.2381 0 12.5 0ZM12.486 8.18507C12.3502 8.18727 12.2166 8.21993 12.0956 8.28058C11.9745 8.34122 11.8691 8.42825 11.7873 8.53503L9.19015 11.0899C9.10446 11.1709 9.03605 11.2678 8.98892 11.3751C8.9418 11.4823 8.9169 11.5978 8.91569 11.7146C8.91448 11.8315 8.93699 11.9474 8.98189 12.0556C9.02679 12.1638 9.09318 12.2621 9.17718 12.3447C9.26118 12.4273 9.3611 12.4926 9.47107 12.5368C9.58105 12.581 9.69888 12.6031 9.81767 12.6019C9.93645 12.6007 10.0538 12.5762 10.1628 12.5299C10.2719 12.4835 10.3704 12.4162 10.4527 12.3319L11.6071 11.1963V17.8592C11.6055 17.9756 11.6273 18.0911 11.6714 18.1991C11.7156 18.3071 11.7811 18.4054 11.8641 18.4883C11.9472 18.5712 12.0462 18.637 12.1554 18.6819C12.2645 18.7269 12.3817 18.75 12.5 18.75C12.6183 18.75 12.7355 18.7269 12.8446 18.6819C12.9538 18.637 13.0528 18.5712 13.1359 18.4883C13.2189 18.4054 13.2844 18.3071 13.3286 18.1991C13.3727 18.0911 13.3945 17.9756 13.3929 17.8592V11.1963L14.5473 12.3319C14.6296 12.4162 14.7281 12.4835 14.8372 12.5299C14.9462 12.5762 15.0635 12.6007 15.1823 12.6019C15.3011 12.6031 15.4189 12.581 15.5289 12.5368C15.6389 12.4926 15.7388 12.4273 15.8228 12.3447C15.9068 12.2621 15.9732 12.1638 16.0181 12.0556C16.063 11.9474 16.0855 11.8315 16.0843 11.7146C16.0831 11.5978 16.0582 11.4823 16.0111 11.3751C15.9639 11.2678 15.8955 11.1709 15.8098 11.0899L13.208 8.53045C13.1234 8.42144 13.0141 8.33343 12.8887 8.27345C12.7633 8.21348 12.6254 8.18321 12.486 8.18507Z" fill="white"/>
</svg>
